<svg viewBox="0 0 841.9 595.3" xmlns="http://www.w3.org/2000/svg" xmlns:xlink="http://www.w3.org/1999/xlink" id="logo" overflow="hidden"><g><path d="M249.5 296.3C270 296.3 280.6 282.4 280.6 263.5L280.6 166.8 324 166.8 324 266C323.2 309.4 288.8 326.6 249.5 326.6 210.2 326.6 175 309.4 175 266L175 166.9 218.4 166.9 218.4 263.6C217.6 282.4 229.1 296.3 249.5 296.3Z" fill="#FFFFFF"/><path d="M62 323.4 105.4 323.4 105.4 197.2 153.7 197.2 153.7 166.9 12.8 166.9 12.8 197.2 62 197.2Z" fill="#FFFFFF"/><path d="M166 90.7C155.4 94 144.7 91.5 144.7 77.6 144.7 56.3 195.5 38.3 202.9 19.4 204.5 14.5 204.5 11.2 202.9 11.2 201.3 11.2 202.9 13.7 198.8 16.9 177.5 38.2 142.3 38.2 115.3 49.7 97.3 57.9 45.7 82.5 58 136.5 58.8 139 60.5 148 62.1 148 63.7 148 63.7 143.1 63.7 136.5 63.7 103.7 101.4 94.7 114.5 73.4 116.1 70.9 118.6 67.7 119.4 69.3 119.4 70.1 119.4 70.9 119.4 73.4 115.3 90.6 97.3 102.1 102.2 114.4 108.8 130.8 128.4 118.5 134.1 107.8 135.7 105.3 136.6 102.9 137.4 103.7 138.2 103.7 138.2 107 137.4 110.3 134.1 129.1 130 139.8 116.1 150.4 112 153.7 104.6 154.5 105.5 157 105.5 157.8 108.8 157.8 111.2 157 148.1 154.5 178.4 111.9 186.6 83.3 187.4 81.7 187.4 79.2 186.6 78.4 185.8 77.6 184.1 79.2 182.5 80.9 176.6 85 171.7 88.3 166 90.7Z" fill="#FFFFFF"/><path d="M537 258.6C537 241.4 547.6 225.8 564.8 225.8 584.5 225.8 592.6 239.7 592.6 258.6L537 258.6ZM614 272.6 614 262.8C614 232.5 596.8 211.2 565.7 211.2 531.3 211.2 514.9 238.2 514.9 270.2 514.9 302.2 528.8 326.7 564 326.7 590.2 326.7 609.1 314.4 612.3 289.8L590.2 289.8C587.7 305.4 579.6 311.9 564 311.9 542.7 311.9 536.2 293.1 536.2 273.4L614 273.4 614 272.6Z" fill="#FFFFFF"/><rect x="638.6" y="166.9" width="20.5" height="156.4" fill="#FFFFFF"/><path d="M724.6 323.4 724.6 228.4 750 228.4 750 213.7 724.6 213.7 724.6 196.5C724.6 184.2 730.3 181.8 742.6 181.8 745.9 181.8 749.2 182.6 753.2 182.6L753.2 165.4C748.3 164.6 743.4 162.9 738.5 162.9 718.8 162.9 704.1 172.7 704.1 193.2L704.1 213.7 682.8 213.7 682.8 228.4 704.1 228.4 704.1 323.4 724.6 323.4Z" fill="#FFFFFF"/><path d="M761.5 214.4 761.5 229.1 780.3 229.1 780.3 298.7C780.3 313.4 780.3 327.4 811.4 327.4 816.3 327.4 820.4 326.6 825.3 325.8L825.3 310.2C822 311 817.9 311.8 814.7 311.8 807.3 311.8 801.6 307.7 801.6 300.3L801.6 230 827 230 827 215.3 801.6 215.3 801.6 185.8 781.1 192.4 781.1 215.3 761.5 214.4Z" fill="#FFFFFF"/><path d="M367.5 323.4 421.6 323.4C488.8 323.4 495.3 266.9 495.3 244.8 495.3 223.5 487.9 166.2 421.6 166.2L367.5 166.2 367.5 323.4ZM389.6 184.9 421.5 184.9C457.5 184.9 473.1 211.9 473.1 244.7 473.1 277.5 458.4 304.5 421.5 304.5L389.6 304.5C389.6 304.5 389.6 184.9 389.6 184.9Z" fill="#FFFFFF"/></g></svg>